<?xml version="1.0" encoding="UTF-8" standalone="no"?>
<!-- Created with Inkscape (http://www.inkscape.org/) -->

<svg
   width="210mm"
   height="200mm"
   viewBox="0 0 210 297"
   version="1.1"
   id="svg1481"
   inkscape:version="1.2.2 (732a01da63, 2022-12-09)"
   sodipodi:docname="skill.svg"
   xmlns:inkscape="http://www.inkscape.org/namespaces/inkscape"
   xmlns:sodipodi="http://sodipodi.sourceforge.net/DTD/sodipodi-0.dtd"
   xmlns="http://www.w3.org/2000/svg"
   xmlns:svg="http://www.w3.org/2000/svg">
  <sodipodi:namedview
     id="namedview1483"
     pagecolor="#ffffff"
     bordercolor="#cccccc"
     borderopacity="1"
     inkscape:showpageshadow="0"
     inkscape:pageopacity="1"
     inkscape:pagecheckerboard="0"
     inkscape:deskcolor="#d1d1d1"
     inkscape:document-units="mm"
     showgrid="false"
     inkscape:zoom="1"
     inkscape:cx="397"
     inkscape:cy="561.5"
     inkscape:window-width="1920"
     inkscape:window-height="991"
     inkscape:window-x="-9"
     inkscape:window-y="-9"
     inkscape:window-maximized="1"
     inkscape:current-layer="layer1" />
  <defs
     id="defs1478">
    <inkscape:perspective
       sodipodi:type="inkscape:persp3d"
       inkscape:vp_x="0 : 148.5 : 1"
       inkscape:vp_y="0 : 1000 : 0"
       inkscape:vp_z="210 : 148.5 : 1"
       inkscape:persp3d-origin="105 : 99 : 1"
       id="perspective1597" />
  </defs>
  <g
     inkscape:label="Layer 1"
     inkscape:groupmode="layer"
     id="layer1">
    <g
       id="g6901">
      <path
         id="rect1668"
         style="opacity:0.734266;fill:#008000;stroke-width:2.13667;stroke-linejoin:bevel"
         d="M 1.2081953,85.026852 V 155.24737 H 159.31069 V 153.0227 A 37.14355,32.543751 0 0 1 125.75493,120.65 37.14355,32.543751 0 0 1 159.31069,88.277299 v -3.250447 z" />
      <g
         id="g6856"
         transform="matrix(0.92535578,0,0,1.1443028,-49.626011,-112.02582)">
        <g
           aria-label="Technical Skill

"
           id="text4456"
           style="font-weight:bold;font-size:5.64444px;-inkscape-font-specification:'sans-serif Bold';opacity:0.734266;fill:#800000;stroke-width:2;stroke-linejoin:bevel">
          <path
             d="m 69.086562,185.07329 h -1.281575 v 3.31004 h -1.058332 v -3.31004 H 65.46508 v -0.79375 h 3.621482 z"
             id="path6903" />
          <path
             d="m 72.716312,187.01907 h -2.271005 q 0.02205,0.36381 0.275607,0.55673 0.256315,0.19293 0.752408,0.19293 0.314193,0 0.609093,-0.113 0.2949,-0.113 0.465776,-0.24254 h 0.110243 v 0.79651 q -0.336241,0.13505 -0.633897,0.19568 -0.297656,0.0606 -0.658701,0.0606 -0.931554,0 -1.427647,-0.41892 -0.496093,-0.41892 -0.496093,-1.19338 0,-0.76619 0.468532,-1.21267 0.471289,-0.44924 1.289843,-0.44924 0.755164,0 1.135503,0.38309 0.380338,0.38034 0.380338,1.09692 z m -0.986675,-0.58153 q -0.0083,-0.31143 -0.15434,-0.46853 -0.146072,-0.1571 -0.454752,-0.1571 -0.286632,0 -0.471289,0.14883 -0.184657,0.14883 -0.206705,0.4768 z"
             id="path6905" />
          <path
             d="m 75.028658,188.46601 q -0.405143,0 -0.741384,-0.0965 -0.333485,-0.0965 -0.581531,-0.29766 -0.245291,-0.20119 -0.380339,-0.50711 -0.135047,-0.30593 -0.135047,-0.71658 0,-0.43271 0.143315,-0.7469 0.146072,-0.31419 0.405143,-0.5209 0.250803,-0.19568 0.578776,-0.28663 0.327973,-0.0909 0.68075,-0.0909 0.316949,0 0.584288,0.0689 0.267339,0.0689 0.49885,0.17915 v 0.84611 h -0.14056 q -0.05788,-0.0496 -0.14056,-0.11575 -0.07993,-0.0661 -0.198437,-0.12954 -0.112999,-0.0606 -0.248047,-0.0992 -0.135048,-0.0413 -0.314193,-0.0413 -0.396874,0 -0.611848,0.25356 -0.212218,0.2508 -0.212218,0.68351 0,0.44648 0.21773,0.67799 0.220486,0.23151 0.622873,0.23151 0.187413,0 0.336241,-0.0413 0.151584,-0.0441 0.250803,-0.10197 0.09371,-0.0551 0.165364,-0.11576 0.07166,-0.0606 0.132292,-0.11851 h 0.14056 v 0.84612 q -0.234267,0.11024 -0.490582,0.17363 -0.253558,0.0661 -0.562239,0.0661 z"
             id="path6907" />
          <path
             d="m 79.846276,188.38333 h -0.997699 v -1.53513 q 0,-0.18742 -0.01929,-0.37207 -0.01929,-0.18742 -0.06615,-0.27561 -0.05512,-0.10197 -0.162609,-0.14883 -0.104731,-0.0469 -0.2949,-0.0469 -0.135047,0 -0.275607,0.0441 -0.137804,0.0441 -0.300412,0.14056 v 2.19383 h -0.992187 v -4.28845 h 0.992187 v 1.53513 q 0.264583,-0.2067 0.507117,-0.31695 0.245291,-0.11024 0.542947,-0.11024 0.501606,0 0.782725,0.29215 0.283876,0.29214 0.283876,0.87367 z"
             id="path6909" />
          <path
             d="m 83.867388,188.38333 h -0.997699 v -1.53513 q 0,-0.18742 -0.01929,-0.37207 -0.01929,-0.18742 -0.06615,-0.27561 -0.05512,-0.10197 -0.162608,-0.14883 -0.104731,-0.0469 -0.2949,-0.0469 -0.135048,0 -0.275608,0.0441 -0.137803,0.0441 -0.300412,0.14056 v 2.19383 h -0.992187 v -3.09507 h 0.992187 v 0.34175 q 0.264583,-0.2067 0.507118,-0.31695 0.24529,-0.11024 0.542946,-0.11024 0.501606,0 0.782726,0.29215 0.283875,0.29214 0.283875,0.87367 z"
             id="path6911" />
          <path
             d="M 85.771837,188.38333 H 84.77965 v -3.09507 h 0.992187 z m 0.02756,-3.53604 h -1.047308 v -0.75241 h 1.047308 z"
             id="path6913" />
          <path
             d="m 88.321204,188.46601 q -0.405143,0 -0.741384,-0.0965 -0.333485,-0.0965 -0.581532,-0.29766 -0.24529,-0.20119 -0.380338,-0.50711 -0.135048,-0.30593 -0.135048,-0.71658 0,-0.43271 0.143316,-0.7469 0.146072,-0.31419 0.405143,-0.5209 0.250803,-0.19568 0.578776,-0.28663 0.327973,-0.0909 0.68075,-0.0909 0.316949,0 0.584288,0.0689 0.267339,0.0689 0.498849,0.17915 v 0.84611 h -0.140559 q -0.05788,-0.0496 -0.14056,-0.11575 -0.07993,-0.0661 -0.198438,-0.12954 -0.112999,-0.0606 -0.248046,-0.0992 -0.135048,-0.0413 -0.314193,-0.0413 -0.396874,0 -0.611848,0.25356 -0.212218,0.2508 -0.212218,0.68351 0,0.44648 0.21773,0.67799 0.220486,0.23151 0.622873,0.23151 0.187413,0 0.336241,-0.0413 0.151584,-0.0441 0.250803,-0.10197 0.09371,-0.0551 0.165364,-0.11576 0.07166,-0.0606 0.132292,-0.11851 h 0.140559 v 0.84612 q -0.234266,0.11024 -0.490581,0.17363 -0.253559,0.0661 -0.562239,0.0661 z"
             id="path6915" />
          <path
             d="m 91.904101,187.5758 v -0.64492 q -0.201194,0.0165 -0.43546,0.0469 -0.234266,0.0276 -0.355534,0.0661 -0.148828,0.0469 -0.228754,0.1378 -0.07717,0.0882 -0.07717,0.23427 0,0.0965 0.01654,0.1571 0.01654,0.0606 0.08268,0.11575 0.06339,0.0551 0.151584,0.0827 0.08819,0.0248 0.275607,0.0248 0.148828,0 0.300412,-0.0606 0.154341,-0.0606 0.270096,-0.15985 z m 0,0.47956 q -0.07993,0.0606 -0.198438,0.14607 -0.118511,0.0854 -0.223242,0.13505 -0.146072,0.0661 -0.303168,0.0965 -0.157096,0.0331 -0.344509,0.0331 -0.440972,0 -0.738628,-0.27285 -0.297656,-0.27285 -0.297656,-0.69728 0,-0.339 0.151584,-0.55398 0.151584,-0.21497 0.429948,-0.33899 0.275607,-0.12403 0.683506,-0.17639 0.407899,-0.0524 0.846115,-0.0772 v -0.0165 q 0,-0.25631 -0.209462,-0.35278 -0.209461,-0.0992 -0.61736,-0.0992 -0.245291,0 -0.523654,0.0882 -0.278364,0.0854 -0.399631,0.13229 h -0.09095 v -0.74689 q 0.157097,-0.0413 0.509874,-0.0965 0.355534,-0.0579 0.711067,-0.0579 0.846115,0 1.220941,0.26182 0.377582,0.25907 0.377582,0.8158 v 2.10564 h -0.983918 z"
             id="path6917" />
          <path
             d="M 94.792466,188.38333 H 93.80028 v -4.28845 h 0.992186 z"
             id="path6919" />
          <path
             d="m 100.99915,187.09349 q 0,0.60633 -0.51539,0.98667 -0.512629,0.37759 -1.394573,0.37759 -0.509873,0 -0.890212,-0.0882 -0.377582,-0.0909 -0.708311,-0.22875 v -0.98392 h 0.115756 q 0.327972,0.26183 0.733115,0.40239 0.407899,0.14055 0.782725,0.14055 0.09646,0 0.253559,-0.0165 0.157096,-0.0165 0.256315,-0.0551 0.121267,-0.0496 0.198437,-0.12403 0.07993,-0.0744 0.07993,-0.22048 0,-0.13505 -0.115755,-0.23151 -0.113,-0.0992 -0.333485,-0.15159 -0.231511,-0.0551 -0.490582,-0.10197 -0.256315,-0.0496 -0.482313,-0.12402 -0.518142,-0.16813 -0.746896,-0.45476 -0.225998,-0.28938 -0.225998,-0.71658 0,-0.57326 0.51263,-0.93431 0.515386,-0.3638 1.322916,-0.3638 0.405142,0 0.799265,0.0799 0.39687,0.0772 0.68626,0.19568 v 0.94533 h -0.113 q -0.24805,-0.19843 -0.60909,-0.33073 -0.358293,-0.13504 -0.733119,-0.13504 -0.132291,0 -0.264583,0.0193 -0.129535,0.0165 -0.250803,0.0661 -0.107486,0.0413 -0.184656,0.12677 -0.07717,0.0827 -0.07717,0.19017 0,0.16261 0.124024,0.25081 0.124023,0.0854 0.468532,0.15709 0.225998,0.0469 0.432704,0.091 0.209462,0.0441 0.449242,0.12127 0.47129,0.15434 0.69453,0.42168 0.226,0.26458 0.226,0.68902 z"
             id="path6921" />
          <path
             d="m 104.95411,188.38333 h -1.15479 l -0.86817,-1.34772 -0.27009,0.32797 v 1.01975 h -0.99219 v -4.28845 h 0.99219 v 2.56039 l 1.06936,-1.36701 h 1.14377 l -1.11346,1.33394 z"
             id="path6923" />
          <path
             d="m 106.44791,188.38333 h -0.99219 v -3.09507 h 0.99219 z m 0.0276,-3.53604 h -1.04731 v -0.75241 h 1.04731 z"
             id="path6925" />
          <path
             d="m 108.37716,188.38333 h -0.99219 v -4.28845 h 0.99219 z"
             id="path6927" />
          <path
             d="m 110.30641,188.38333 h -0.99219 v -4.28845 h 0.99219 z"
             id="path6929" />
        </g>
        <g
           aria-label="1. HTML
2. CSS
3. Javascript
4. Node.js
5."
           id="text4514"
           style="font-weight:bold;font-size:4.93889px;-inkscape-font-specification:'sans-serif Bold';opacity:0.734266;fill:#800000;stroke-width:2;stroke-linejoin:bevel">
          <path
             d="m 71.830239,197.37917 h -2.397098 v -0.62701 h 0.757232 v -1.89791 h -0.757232 v -0.58601 q 0.173633,0 0.332796,-0.0193 0.159164,-0.0217 0.265273,-0.0724 0.125401,-0.0603 0.188102,-0.15675 0.0627,-0.0965 0.07235,-0.24115 h 0.798229 v 2.97346 h 0.740351 z"
             id="path6932" />
          <path
             d="m 73.646149,197.37917 h -0.901926 v -0.94775 h 0.901926 z"
             id="path6934" />
          <path
             d="m 79.453203,197.37917 h -0.926041 v -1.58199 h -1.367359 v 1.58199 h -0.926042 v -3.59083 h 0.926042 v 1.31431 h 1.367359 v -1.31431 h 0.926041 z"
             id="path6936" />
          <path
             d="m 83.179076,194.48287 h -1.121379 v 2.8963 h -0.926042 v -2.8963 h -1.121379 v -0.69453 h 3.1688 z"
             id="path6938" />
          <path
             d="m 87.500604,197.37917 h -0.921219 v -2.40434 l -0.665593,1.56029 h -0.639065 l -0.665592,-1.56029 v 2.40434 h -0.872988 v -3.59083 h 1.075559 l 0.807875,1.80144 0.805464,-1.80144 h 1.075559 z"
             id="path6940" />
          <path
             d="m 91.007022,197.37917 h -2.590023 v -3.59083 h 0.926042 v 2.89629 h 1.663981 z"
             id="path6942" />
          <path
             d="m 72.056926,203.55278 h -2.819122 v -0.59325 q 0.32315,-0.23392 0.6463,-0.49678 0.325562,-0.26286 0.520899,-0.45337 0.291799,-0.28216 0.414789,-0.49196 0.12299,-0.20981 0.12299,-0.41479 0,-0.24598 -0.159163,-0.37862 -0.156752,-0.13505 -0.453375,-0.13505 -0.221864,0 -0.467844,0.0916 -0.243568,0.0916 -0.453375,0.23392 h -0.07717 v -0.79823 q 0.171221,-0.0747 0.504018,-0.14951 0.335208,-0.0748 0.670416,-0.0748 0.675238,0 1.029739,0.28456 0.3545,0.28216 0.3545,0.80064 0,0.34004 -0.171221,0.6463 -0.16881,0.30627 -0.518487,0.63183 -0.219453,0.20258 -0.441317,0.3738 -0.221864,0.16881 -0.315915,0.23633 h 1.613338 z"
             id="path6944" />
          <path
             d="m 73.646149,203.55278 h -0.901926 v -0.94775 h 0.901926 z"
             id="path6946" />
          <path
             d="m 77.856746,203.62271 q -0.40032,0 -0.740351,-0.11816 -0.33762,-0.11817 -0.581188,-0.35209 -0.243568,-0.23392 -0.378616,-0.5836 -0.132636,-0.34968 -0.132636,-0.80788 0,-0.42684 0.127813,-0.77411 0.127813,-0.34727 0.371381,-0.59566 0.233922,-0.23874 0.578776,-0.36897 0.347266,-0.13022 0.757232,-0.13022 0.226688,0 0.407555,0.0265 0.183279,0.0241 0.33762,0.0651 0.161575,0.0458 0.291799,0.1037 0.132637,0.0555 0.231511,0.10369 v 0.87058 h -0.106109 q -0.06752,-0.0579 -0.171221,-0.13746 -0.101286,-0.0796 -0.231511,-0.15675 -0.132636,-0.0772 -0.286976,-0.13023 -0.154341,-0.0531 -0.330385,-0.0531 -0.195337,0 -0.371381,0.0627 -0.176045,0.0603 -0.325562,0.20257 -0.142283,0.13746 -0.231511,0.36415 -0.08682,0.22669 -0.08682,0.54984 0,0.33761 0.09405,0.5643 0.09646,0.22669 0.241157,0.35691 0.147106,0.13264 0.327973,0.19052 0.180868,0.0555 0.356912,0.0555 0.16881,0 0.332796,-0.0506 0.166399,-0.0506 0.306269,-0.13746 0.118167,-0.0699 0.219453,-0.14952 0.101286,-0.0796 0.166398,-0.13746 h 0.09646 v 0.85852 q -0.135048,0.0603 -0.258038,0.11335 -0.12299,0.0531 -0.258038,0.0916 -0.176044,0.0506 -0.330384,0.0772 -0.154341,0.0265 -0.424436,0.0265 z"
             id="path6948" />
          <path
             d="m 82.682292,202.42416 q 0,0.53055 -0.450963,0.86335 -0.448551,0.33038 -1.220253,0.33038 -0.44614,0 -0.778936,-0.0772 -0.330385,-0.0796 -0.619773,-0.20016 v -0.86093 h 0.101286 q 0.286977,0.2291 0.641477,0.35209 0.356912,0.12299 0.684885,0.12299 0.08441,0 0.221864,-0.0145 0.13746,-0.0145 0.224276,-0.0482 0.106109,-0.0434 0.173633,-0.10852 0.06994,-0.0651 0.06994,-0.19293 0,-0.11816 -0.101285,-0.20257 -0.09888,-0.0868 -0.2918,-0.13264 -0.202572,-0.0482 -0.429259,-0.0892 -0.224276,-0.0434 -0.422024,-0.10852 -0.453375,-0.14711 -0.653535,-0.39791 -0.197749,-0.25322 -0.197749,-0.62701 0,-0.50161 0.448552,-0.81752 0.450963,-0.31833 1.157552,-0.31833 0.354501,0 0.699355,0.0699 0.347265,0.0675 0.60048,0.17122 v 0.82717 h -0.09887 q -0.217041,-0.17364 -0.532957,-0.28939 -0.313503,-0.11817 -0.641477,-0.11817 -0.115755,0 -0.23151,0.0169 -0.113344,0.0145 -0.219453,0.0579 -0.09405,0.0362 -0.161575,0.11093 -0.06752,0.0724 -0.06752,0.1664 0,0.14228 0.108521,0.21945 0.108521,0.0748 0.409966,0.13746 0.197749,0.041 0.378617,0.0796 0.183279,0.0386 0.393085,0.10611 0.412378,0.13505 0.607715,0.36897 0.197748,0.23151 0.197748,0.60289 z"
             id="path6950" />
          <path
             d="m 86.191123,202.42416 q 0,0.53055 -0.450964,0.86335 -0.448551,0.33038 -1.220253,0.33038 -0.44614,0 -0.778936,-0.0772 -0.330385,-0.0796 -0.619773,-0.20016 v -0.86093 h 0.101286 q 0.286977,0.2291 0.641477,0.35209 0.356912,0.12299 0.684885,0.12299 0.08441,0 0.221864,-0.0145 0.13746,-0.0145 0.224276,-0.0482 0.106109,-0.0434 0.173633,-0.10852 0.06994,-0.0651 0.06994,-0.19293 0,-0.11816 -0.101285,-0.20257 -0.09888,-0.0868 -0.2918,-0.13264 -0.202572,-0.0482 -0.429259,-0.0892 -0.224276,-0.0434 -0.422024,-0.10852 -0.453375,-0.14711 -0.653535,-0.39791 -0.197749,-0.25322 -0.197749,-0.62701 0,-0.50161 0.448552,-0.81752 0.450963,-0.31833 1.157552,-0.31833 0.354501,0 0.699355,0.0699 0.347266,0.0675 0.60048,0.17122 v 0.82717 h -0.09887 q -0.217041,-0.17364 -0.532957,-0.28939 -0.313503,-0.11817 -0.641476,-0.11817 -0.115756,0 -0.231511,0.0169 -0.113344,0.0145 -0.219453,0.0579 -0.09405,0.0362 -0.161575,0.11093 -0.06752,0.0724 -0.06752,0.1664 0,0.14228 0.10852,0.21945 0.108521,0.0748 0.409966,0.13746 0.197749,0.041 0.378617,0.0796 0.183279,0.0386 0.393085,0.10611 0.412378,0.13505 0.607715,0.36897 0.197749,0.23151 0.197749,0.60289 z"
             id="path6952" />
          <path
             d="m 71.704838,208.04312 q 0.118166,0.10128 0.188102,0.23633 0.06994,0.13505 0.06994,0.35932 0,0.25322 -0.101286,0.47267 -0.09887,0.21945 -0.306269,0.37621 -0.202571,0.15192 -0.47749,0.23392 -0.272507,0.0796 -0.663181,0.0796 -0.44614,0 -0.766878,-0.0699 -0.318327,-0.0699 -0.518487,-0.15675 v -0.78858 h 0.09405 q 0.207394,0.1254 0.494371,0.21704 0.289388,0.0916 0.528133,0.0916 0.139871,0 0.303858,-0.0217 0.163986,-0.0241 0.27733,-0.10129 0.08923,-0.0603 0.142282,-0.14469 0.05306,-0.0868 0.05306,-0.2484 0,-0.15675 -0.07235,-0.24115 -0.07235,-0.0868 -0.190514,-0.12299 -0.118167,-0.0386 -0.284565,-0.041 -0.166398,-0.005 -0.30868,-0.005 h -0.197749 v -0.64148 h 0.204983 q 0.188102,0 0.332797,-0.0121 0.144694,-0.0121 0.245979,-0.0555 0.106109,-0.0458 0.159164,-0.12058 0.05305,-0.0772 0.05305,-0.22428 0,-0.10852 -0.05547,-0.17363 -0.05547,-0.0675 -0.139871,-0.10611 -0.09405,-0.0434 -0.221864,-0.0579 -0.127813,-0.0145 -0.219452,-0.0145 -0.226688,0 -0.49196,0.0796 -0.265273,0.0772 -0.513664,0.22427 h -0.08923 v -0.77893 q 0.197748,-0.0796 0.537779,-0.15193 0.340031,-0.0748 0.689709,-0.0748 0.340031,0 0.595657,0.0603 0.255626,0.0579 0.422024,0.15675 0.197749,0.11817 0.294211,0.28698 0.09646,0.16881 0.09646,0.39549 0,0.29904 -0.185691,0.53537 -0.18569,0.23392 -0.489548,0.29904 v 0.0338 q 0.12299,0.0169 0.26045,0.0675 0.137459,0.0506 0.250803,0.14711 z"
             id="path6954" />
          <path
             d="m 73.646149,209.72639 h -0.901926 v -0.94775 h 0.901926 z"
             id="path6956" />
          <path
             d="m 78.105137,208.67254 q 0,0.23633 -0.08441,0.44372 -0.0844,0.20499 -0.250803,0.34727 -0.176044,0.15193 -0.424435,0.23633 -0.248392,0.082 -0.61495,0.082 -0.248392,0 -0.467844,-0.0193 -0.219453,-0.0169 -0.385851,-0.0506 v -0.72829 h 0.08682 q 0.115756,0.0434 0.241157,0.082 0.125402,0.0362 0.320739,0.0362 0.253214,0 0.388262,-0.0675 0.137459,-0.0675 0.195337,-0.1881 0.05547,-0.11817 0.0627,-0.25804 0.0072,-0.14228 0.0072,-0.36173 v -1.43006 h -0.822344 v -0.66077 h 1.748386 z"
             id="path6958" />
          <path
             d="m 80.567347,209.0198 v -0.56431 q -0.176044,0.0145 -0.381027,0.041 -0.204983,0.0241 -0.311092,0.0579 -0.130225,0.041 -0.20016,0.12058 -0.06752,0.0772 -0.06752,0.20498 0,0.0844 0.01447,0.13746 0.01447,0.053 0.07235,0.10129 0.05547,0.0482 0.132636,0.0723 0.07717,0.0217 0.241157,0.0217 0.130225,0 0.262861,-0.0531 0.135048,-0.0531 0.236333,-0.13987 z m 0,0.41961 q -0.06994,0.0531 -0.173632,0.12782 -0.103698,0.0748 -0.195337,0.11816 -0.127813,0.0579 -0.265273,0.0844 -0.137459,0.0289 -0.301446,0.0289 -0.38585,0 -0.6463,-0.23875 -0.260449,-0.23874 -0.260449,-0.61012 0,-0.29663 0.132636,-0.48473 0.132636,-0.1881 0.376205,-0.29662 0.241156,-0.10852 0.598068,-0.15434 0.356912,-0.0458 0.740352,-0.0675 v -0.0145 q 0,-0.22427 -0.18328,-0.30868 -0.183279,-0.0868 -0.540191,-0.0868 -0.214629,0 -0.458197,0.0772 -0.243569,0.0748 -0.349678,0.11575 h -0.07958 v -0.65353 q 0.137459,-0.0362 0.44614,-0.0844 0.311092,-0.0506 0.622184,-0.0506 0.740351,0 1.068324,0.2291 0.330385,0.22669 0.330385,0.71382 v 1.84244 h -0.86093 z"
             id="path6960" />
          <path
             d="m 84.953989,207.0182 -1.044209,2.70819 h -0.983919 l -1.036974,-2.70819 h 0.918807 l 0.627007,1.86173 0.619773,-1.86173 z"
             id="path6962" />
          <path
             d="m 87.076169,209.0198 v -0.56431 q -0.176044,0.0145 -0.381028,0.041 -0.204983,0.0241 -0.311092,0.0579 -0.130225,0.041 -0.20016,0.12058 -0.06752,0.0772 -0.06752,0.20498 0,0.0844 0.01447,0.13746 0.01447,0.053 0.07235,0.10129 0.05547,0.0482 0.132636,0.0723 0.07717,0.0217 0.241156,0.0217 0.130225,0 0.262861,-0.0531 0.135048,-0.0531 0.236334,-0.13987 z m 0,0.41961 q -0.06994,0.0531 -0.173633,0.12782 -0.103697,0.0748 -0.195337,0.11816 -0.127813,0.0579 -0.265272,0.0844 -0.13746,0.0289 -0.301446,0.0289 -0.385851,0 -0.6463,-0.23875 -0.26045,-0.23874 -0.26045,-0.61012 0,-0.29663 0.132637,-0.48473 0.132636,-0.1881 0.376204,-0.29662 0.241157,-0.10852 0.598069,-0.15434 0.356912,-0.0458 0.740351,-0.0675 v -0.0145 q 0,-0.22427 -0.183279,-0.30868 -0.183279,-0.0868 -0.540191,-0.0868 -0.21463,0 -0.458198,0.0772 -0.243568,0.0748 -0.349677,0.11575 h -0.07958 v -0.65353 q 0.137459,-0.0362 0.44614,-0.0844 0.311092,-0.0506 0.622184,-0.0506 0.740352,0 1.068325,0.2291 0.330384,0.22669 0.330384,0.71382 v 1.84244 h -0.860929 z"
             id="path6964" />
          <path
             d="m 91.089016,208.86787 q 0,0.41962 -0.376205,0.67765 -0.376204,0.25563 -1.029739,0.25563 -0.361735,0 -0.655947,-0.0675 -0.294211,-0.0675 -0.472667,-0.14952 v -0.71383 h 0.07958 q 0.06511,0.0458 0.149517,0.10129 0.08682,0.053 0.243568,0.11576 0.135048,0.0555 0.30627,0.0965 0.171221,0.0386 0.366558,0.0386 0.255626,0 0.378616,-0.0555 0.12299,-0.0579 0.12299,-0.16881 0,-0.0989 -0.07235,-0.14229 -0.07235,-0.0458 -0.274919,-0.0868 -0.09646,-0.0217 -0.262861,-0.0458 -0.163986,-0.0265 -0.299034,-0.0627 -0.36897,-0.0965 -0.547426,-0.29904 -0.178456,-0.20498 -0.178456,-0.50884 0,-0.39067 0.36897,-0.64871 0.371381,-0.26045 1.012858,-0.26045 0.303858,0 0.581188,0.0627 0.279742,0.0603 0.436494,0.13023 v 0.68488 h -0.07476 q -0.192925,-0.13263 -0.441317,-0.21463 -0.24598,-0.0844 -0.499194,-0.0844 -0.209807,0 -0.354501,0.0579 -0.142282,0.0579 -0.142282,0.16398 0,0.0965 0.06511,0.14711 0.06511,0.0506 0.306269,0.10128 0.132636,0.0265 0.284565,0.0531 0.154341,0.0241 0.308681,0.0627 0.342442,0.0892 0.506429,0.28215 0.163987,0.19052 0.163987,0.47749 z"
             id="path6966" />
          <path
             d="m 93.076148,209.79874 q -0.3545,0 -0.648711,-0.0844 -0.2918,-0.0844 -0.508841,-0.26045 -0.21463,-0.17604 -0.332796,-0.44372 -0.118167,-0.26769 -0.118167,-0.62701 0,-0.37862 0.125401,-0.65354 0.127813,-0.27492 0.354501,-0.45578 0.219452,-0.17122 0.506429,-0.25081 0.286976,-0.0796 0.595657,-0.0796 0.27733,0 0.511252,0.0603 0.233922,0.0603 0.436494,0.15675 v 0.74035 h -0.12299 q -0.05064,-0.0434 -0.12299,-0.10128 -0.06994,-0.0579 -0.173633,-0.11335 -0.09887,-0.0531 -0.217041,-0.0868 -0.118167,-0.0362 -0.274918,-0.0362 -0.347266,0 -0.535368,0.22187 -0.185691,0.21945 -0.185691,0.59807 0,0.39067 0.190514,0.59324 0.192925,0.20257 0.545014,0.20257 0.163987,0 0.294211,-0.0362 0.132636,-0.0386 0.219453,-0.0892 0.08199,-0.0482 0.144694,-0.10128 0.0627,-0.0531 0.115755,-0.1037 h 0.12299 v 0.74035 q -0.204983,0.0965 -0.429259,0.15193 -0.221864,0.0579 -0.49196,0.0579 z"
             id="path6968" />
          <path
             d="m 96.534334,207.84537 h -0.07717 q -0.05547,-0.0193 -0.178456,-0.0289 -0.12299,-0.01 -0.204983,-0.01 -0.185691,0 -0.327973,0.0241 -0.142283,0.0241 -0.306269,0.082 v 1.8135 h -0.868164 v -2.70819 h 0.868164 v 0.39791 q 0.286976,-0.24598 0.499194,-0.32556 0.212218,-0.082 0.390674,-0.082 0.04582,0 0.103698,0.002 0.05788,0.002 0.101285,0.007 z"
             id="path6970" />
          <path
             d="m 97.89446,209.72639 h -0.868164 v -2.70819 h 0.868164 z m 0.02412,-3.09404 H 97.00218 v -0.65836 h 0.916396 z"
             id="path6972" />
          <path
             d="m 101.54075,208.33492 q 0,0.3352 -0.1037,0.61012 -0.10128,0.27492 -0.26768,0.45338 -0.17363,0.1881 -0.39309,0.28456 -0.21945,0.0965 -0.47025,0.0965 -0.23151,0 -0.393088,-0.0506 -0.161575,-0.0482 -0.330385,-0.13746 v 1.12862 h -0.868164 v -3.70176 h 0.868164 v 0.28215 q 0.20016,-0.15916 0.407555,-0.25803 0.209808,-0.0989 0.482318,-0.0989 0.50642,0 0.78617,0.37138 0.28215,0.37138 0.28215,1.0201 z m -0.89469,0.0169 q 0,-0.3955 -0.13505,-0.57396 -0.13505,-0.17845 -0.42685,-0.17845 -0.122987,0 -0.253212,0.0386 -0.130224,0.0362 -0.248391,0.10611 v 1.36254 q 0.08682,0.0338 0.185691,0.0434 0.09887,0.01 0.195337,0.01 0.344855,0 0.513665,-0.20016 0.16881,-0.20257 0.16881,-0.60771 z"
             id="path6974" />
          <path
             d="m 103.89926,209.70227 q -0.13987,0.0362 -0.29662,0.0555 -0.15675,0.0217 -0.38344,0.0217 -0.50643,0 -0.75482,-0.20499 -0.24598,-0.20498 -0.24598,-0.70176 v -1.26608 h -0.35691 v -0.58842 h 0.35691 v -0.77411 h 0.86816 v 0.77411 h 0.8127 v 0.58842 h -0.8127 v 0.95981 q 0,0.14228 0.002,0.24839 0.002,0.10611 0.0386,0.19051 0.0338,0.0844 0.11817,0.13505 0.0868,0.0482 0.2508,0.0482 0.0675,0 0.17604,-0.0289 0.11094,-0.0289 0.15434,-0.0531 h 0.0724 z"
             id="path6976" />
          <path
             d="m 72.107569,215.07284 h -0.489548 v 0.83681 h -0.885045 v -0.83681 h -1.73874 v -0.68007 l 1.680862,-2.08359 h 0.942923 v 2.10771 h 0.489548 z m -1.374593,-0.65595 v -1.29742 l -1.044209,1.29742 z"
             id="path6978" />
          <path
             d="m 73.646149,215.9 h -0.901926 v -0.94774 h 0.901926 z"
             id="path6980" />
          <path
             d="m 79.499023,215.9 h -0.89228 l -1.52411,-2.46462 V 215.9 h -0.848872 v -3.59082 h 1.106909 l 1.309482,2.05707 v -2.05707 h 0.848871 z"
             id="path6982" />
          <path
             d="m 83.135667,214.54711 q 0,0.66801 -0.390674,1.05386 -0.388262,0.38344 -1.09244,0.38344 -0.704178,0 -1.094852,-0.38344 -0.388262,-0.38585 -0.388262,-1.05386 0,-0.67282 0.390674,-1.05626 0.393085,-0.38344 1.09244,-0.38344 0.709001,0 1.094851,0.38585 0.388263,0.38585 0.388263,1.05385 z m -1.068325,0.65836 q 0.08441,-0.1037 0.125402,-0.24839 0.04341,-0.14711 0.04341,-0.40514 0,-0.23875 -0.04341,-0.40032 -0.04341,-0.16158 -0.120578,-0.25804 -0.07717,-0.0989 -0.185691,-0.13987 -0.108521,-0.041 -0.233922,-0.041 -0.125402,0 -0.224276,0.0338 -0.09646,0.0338 -0.185691,0.13505 -0.07958,0.0941 -0.127813,0.25804 -0.04582,0.16399 -0.04582,0.41238 0,0.22186 0.041,0.38585 0.041,0.16157 0.120579,0.26045 0.07717,0.0941 0.183279,0.13746 0.10852,0.0434 0.24598,0.0434 0.118166,0 0.224275,-0.0386 0.108521,-0.041 0.183279,-0.13505 z"
             id="path6984" />
          <path
             d="m 86.391283,215.9 h -0.868164 v -0.28215 q -0.224276,0.18328 -0.419613,0.2701 -0.195337,0.0868 -0.450963,0.0868 -0.494371,0 -0.790994,-0.38103 -0.296623,-0.38102 -0.296623,-1.02732 0,-0.34486 0.09887,-0.61013 0.101286,-0.26768 0.274919,-0.4582 0.163987,-0.18087 0.397909,-0.27974 0.233922,-0.10129 0.467844,-0.10129 0.243568,0 0.397908,0.0531 0.156752,0.0506 0.320739,0.13022 v -1.15273 h 0.868164 z m -0.868164,-0.74758 v -1.32878 q -0.09164,-0.0386 -0.192925,-0.0555 -0.101286,-0.0169 -0.185691,-0.0169 -0.342443,0 -0.513664,0.21463 -0.171221,0.21221 -0.171221,0.59083 0,0.39791 0.137459,0.57878 0.137459,0.17845 0.441317,0.17845 0.118167,0 0.250803,-0.0434 0.132636,-0.0458 0.233922,-0.11816 z"
             id="path6986" />
          <path
             d="m 89.878409,214.70628 h -1.987132 q 0.01929,0.31832 0.241157,0.48713 0.224276,0.16881 0.658358,0.16881 0.274918,0 0.532956,-0.0989 0.258038,-0.0989 0.407555,-0.21222 h 0.09646 v 0.69694 q -0.294212,0.11817 -0.554661,0.17123 -0.260449,0.0531 -0.576364,0.0531 -0.81511,0 -1.249192,-0.36656 -0.434083,-0.36656 -0.434083,-1.04421 0,-0.67041 0.409967,-1.06109 0.412378,-0.39308 1.128613,-0.39308 0.66077,0 0.993566,0.33521 0.332797,0.33279 0.332797,0.9598 z m -0.863342,-0.50884 q -0.0072,-0.27251 -0.135047,-0.40997 -0.127813,-0.13746 -0.397909,-0.13746 -0.250803,0 -0.412378,0.13023 -0.161575,0.13022 -0.180868,0.4172 z"
             id="path6988" />
          <path
             d="m 91.424223,215.9 h -0.901926 v -0.94774 h 0.901926 z"
             id="path6990" />
          <path
             d="m 93.447528,215.94823 q 0,0.4582 -0.282154,0.71383 -0.282153,0.25804 -0.725881,0.25804 -0.236334,0 -0.431671,-0.0217 -0.192925,-0.0193 -0.282153,-0.041 v -0.62219 h 0.06752 q 0.07235,0.0241 0.180867,0.041 0.108521,0.0169 0.171221,0.0169 0.250803,0 0.342443,-0.14952 0.09164,-0.14952 0.09164,-0.49196 v -1.87137 H 92.0657 v -0.58843 h 1.381828 z m 0,-3.14227 h -0.923631 v -0.65836 h 0.923631 z"
             id="path6992" />
          <path
             d="m 96.61874,215.04149 q 0,0.41961 -0.376205,0.67765 -0.376204,0.25562 -1.029739,0.25562 -0.361735,0 -0.655946,-0.0675 -0.294212,-0.0675 -0.472668,-0.14952 v -0.71382 h 0.07958 q 0.06511,0.0458 0.149517,0.10128 0.08682,0.0531 0.243569,0.11576 0.135047,0.0555 0.306269,0.0965 0.171221,0.0386 0.366558,0.0386 0.255626,0 0.378616,-0.0555 0.12299,-0.0579 0.12299,-0.16881 0,-0.0989 -0.07235,-0.14228 -0.07235,-0.0458 -0.274919,-0.0868 -0.09646,-0.0217 -0.262861,-0.0458 -0.163986,-0.0265 -0.299034,-0.0627 -0.36897,-0.0965 -0.547426,-0.29903 -0.178456,-0.20499 -0.178456,-0.50884 0,-0.39068 0.36897,-0.64872 0.371381,-0.26045 1.012858,-0.26045 0.303858,0 0.581188,0.0627 0.279742,0.0603 0.436494,0.13022 v 0.68488 h -0.07476 q -0.192925,-0.13263 -0.441317,-0.21462 -0.24598,-0.0844 -0.499194,-0.0844 -0.209806,0 -0.354501,0.0579 -0.142282,0.0579 -0.142282,0.16398 0,0.0965 0.06511,0.14711 0.06511,0.0506 0.306269,0.10129 0.132637,0.0265 0.284565,0.0531 0.154341,0.0241 0.308681,0.0627 0.342443,0.0892 0.506429,0.28215 0.163987,0.19052 0.163987,0.4775 z"
             id="path6994" />
          <path
             d="m 71.979756,220.85819 q 0,0.27974 -0.106109,0.52089 -0.103697,0.23875 -0.303857,0.40997 -0.221864,0.18328 -0.511253,0.27251 -0.286976,0.0868 -0.655946,0.0868 -0.43167,-0.002 -0.730705,-0.0699 -0.296623,-0.0651 -0.484725,-0.14711 v -0.7934 h 0.101286 q 0.219453,0.13022 0.472667,0.21704 0.253215,0.0868 0.504018,0.0868 0.151929,0 0.327973,-0.0338 0.178456,-0.0362 0.282153,-0.12781 0.08199,-0.0748 0.12299,-0.15193 0.04341,-0.0772 0.04341,-0.23874 0,-0.12541 -0.05788,-0.21463 -0.05547,-0.0916 -0.144694,-0.14711 -0.130225,-0.0796 -0.313504,-0.1037 -0.183279,-0.0265 -0.332796,-0.0265 -0.217041,0 -0.417201,0.0386 -0.197749,0.0362 -0.347266,0.0724 h -0.106109 v -2.02572 h 2.55385 v 0.6873 h -1.683274 v 0.58601 q 0.07476,-0.005 0.188102,-0.007 0.115755,-0.005 0.202572,-0.005 0.296622,0 0.528133,0.0579 0.233922,0.0555 0.402732,0.15675 0.219452,0.13264 0.342442,0.35209 0.12299,0.21704 0.12299,0.54743 z"
             id="path6996" />
          <path
             d="m 73.646149,222.07362 h -0.901926 v -0.94775 h 0.901926 z"
             id="path6998" />
        </g>
        <g
           aria-label="Version Control"
           id="text5252"
           style="font-weight:bold;font-size:4.9389px;-inkscape-font-specification:'sans-serif Bold';opacity:0.734266;fill:#800000;stroke-width:2;stroke-linejoin:bevel">
          <path
             d="m 79.913818,218.92376 -1.309484,3.59083 h -1.036976 l -1.309483,-3.59083 h 0.971863 l 0.868166,2.5225 0.868166,-2.5225 z"
             id="path7001" />
          <path
             d="m 83.048862,221.32086 h -1.987135 q 0.01929,0.31833 0.241157,0.48714 0.224276,0.16881 0.658359,0.16881 0.274919,0 0.532957,-0.0989 0.258039,-0.0989 0.407556,-0.21222 h 0.09646 v 0.69695 q -0.294212,0.11817 -0.554662,0.17122 -0.260449,0.053 -0.576365,0.053 -0.815112,0 -1.249195,-0.36655 -0.434083,-0.36656 -0.434083,-1.04422 0,-0.67041 0.409968,-1.06109 0.412378,-0.39308 1.128615,-0.39308 0.660771,0 0.993568,0.33521 0.332797,0.33279 0.332797,0.9598 z m -0.863343,-0.50884 q -0.0072,-0.27251 -0.135048,-0.40997 -0.127813,-0.13746 -0.397909,-0.13746 -0.250804,0 -0.412379,0.13023 -0.161575,0.13022 -0.180868,0.4172 z"
             id="path7003" />
          <path
             d="m 85.624421,220.63356 h -0.07717 q -0.05547,-0.0193 -0.178456,-0.0289 -0.12299,-0.01 -0.204984,-0.01 -0.185691,0 -0.327974,0.0241 -0.142282,0.0241 -0.306269,0.082 v 1.8135 h -0.868166 v -2.7082 h 0.868166 v 0.39791 q 0.286977,-0.24598 0.499195,-0.32556 0.212218,-0.082 0.390675,-0.082 0.04582,0 0.103697,0.002 0.05788,0.002 0.101286,0.007 z"
             id="path7005" />
          <path
             d="m 88.470077,221.65607 q 0,0.41961 -0.376205,0.67765 -0.376206,0.25563 -1.029742,0.25563 -0.361735,0 -0.655947,-0.0675 -0.294212,-0.0675 -0.472668,-0.14952 v -0.71382 h 0.07958 q 0.06511,0.0458 0.149518,0.10129 0.08682,0.053 0.243569,0.11575 0.135048,0.0555 0.306269,0.0965 0.171222,0.0386 0.366559,0.0386 0.255627,0 0.378617,-0.0555 0.12299,-0.0579 0.12299,-0.16881 0,-0.0989 -0.07235,-0.14228 -0.07235,-0.0458 -0.274919,-0.0868 -0.09646,-0.0217 -0.262861,-0.0458 -0.163987,-0.0265 -0.299035,-0.0627 -0.368971,-0.0965 -0.547427,-0.29903 -0.178457,-0.20499 -0.178457,-0.50884 0,-0.39068 0.368971,-0.64872 0.371382,-0.26045 1.01286,-0.26045 0.303858,0 0.581189,0.0627 0.279743,0.0603 0.436495,0.13023 v 0.68489 h -0.07476 q -0.192926,-0.13264 -0.441318,-0.21463 -0.24598,-0.0844 -0.499195,-0.0844 -0.209807,0 -0.354501,0.0579 -0.142283,0.0579 -0.142283,0.16399 0,0.0965 0.06511,0.1471 0.06511,0.0506 0.30627,0.10129 0.132637,0.0265 0.284566,0.0531 0.15434,0.0241 0.308681,0.0627 0.342443,0.0892 0.50643,0.28216 0.163987,0.19051 0.163987,0.47749 z"
             id="path7007" />
          <path
             d="m 89.914608,222.51459 h -0.868166 v -2.7082 h 0.868166 z m 0.02412,-3.09405 h -0.916398 v -0.65836 h 0.916398 z"
             id="path7009" />
          <path
             d="m 93.503028,221.1617 q 0,0.668 -0.390675,1.05385 -0.388263,0.38344 -1.092442,0.38344 -0.704179,0 -1.094854,-0.38344 -0.388263,-0.38585 -0.388263,-1.05385 0,-0.67283 0.390674,-1.05627 0.393087,-0.38344 1.092443,-0.38344 0.709002,0 1.094854,0.38585 0.388263,0.38585 0.388263,1.05386 z m -1.068327,0.65835 q 0.0844,-0.10369 0.125402,-0.24839 0.04341,-0.1471 0.04341,-0.40514 0,-0.23875 -0.04341,-0.40032 -0.04341,-0.16158 -0.120579,-0.25804 -0.07717,-0.0989 -0.185691,-0.13987 -0.108521,-0.041 -0.233922,-0.041 -0.125402,0 -0.224276,0.0338 -0.09646,0.0338 -0.185692,0.13505 -0.07958,0.094 -0.127813,0.25804 -0.04582,0.16399 -0.04582,0.41238 0,0.22186 0.041,0.38585 0.041,0.16158 0.120579,0.26045 0.07717,0.0941 0.183279,0.13746 0.108521,0.0434 0.24598,0.0434 0.118167,0 0.224277,-0.0386 0.10852,-0.041 0.183279,-0.13505 z"
             id="path7011" />
          <path
             d="m 96.845467,222.51459 h -0.872989 v -1.34325 q 0,-0.16399 -0.01688,-0.32556 -0.01688,-0.16399 -0.05788,-0.24116 -0.04823,-0.0892 -0.142283,-0.13022 -0.09164,-0.041 -0.258038,-0.041 -0.118167,0 -0.241157,0.0386 -0.120579,0.0386 -0.262862,0.12299 v 1.91961 h -0.868166 v -2.7082 h 0.868166 v 0.29904 q 0.231511,-0.18087 0.44373,-0.27733 0.21463,-0.0965 0.47508,-0.0965 0.438906,0 0.684886,0.25563 0.248392,0.25563 0.248392,0.76447 z"
             id="path7013" />
          <path
             d="m 101.00302,222.58452 q -0.40032,0 -0.74035,-0.11816 -0.337625,-0.11817 -0.581194,-0.35209 -0.243568,-0.23393 -0.378616,-0.5836 -0.132637,-0.34968 -0.132637,-0.80788 0,-0.42685 0.127813,-0.77412 0.127814,-0.34726 0.371383,-0.59565 0.233922,-0.23875 0.578781,-0.36897 0.34726,-0.13023 0.75723,-0.13023 0.22669,0 0.40756,0.0265 0.18327,0.0241 0.33762,0.0651 0.16157,0.0458 0.2918,0.1037 0.13263,0.0555 0.23151,0.1037 v 0.87057 h -0.10611 q -0.0675,-0.0579 -0.17122,-0.13746 -0.10129,-0.0796 -0.23152,-0.15675 -0.13263,-0.0772 -0.28697,-0.13022 -0.15434,-0.0531 -0.33039,-0.0531 -0.19534,0 -0.37138,0.0627 -0.17604,0.0603 -0.32556,0.20257 -0.14228,0.13746 -0.23151,0.36415 -0.0868,0.22669 -0.0868,0.54984 0,0.33762 0.094,0.56431 0.0965,0.22669 0.24116,0.35691 0.1471,0.13264 0.32797,0.19052 0.18087,0.0555 0.35692,0.0555 0.16881,0 0.33279,-0.0506 0.1664,-0.0506 0.30627,-0.13746 0.11817,-0.0699 0.21946,-0.14952 0.10128,-0.0796 0.16639,-0.13746 h 0.0965 v 0.85852 q -0.13505,0.0603 -0.25804,0.11335 -0.12299,0.053 -0.25804,0.0916 -0.17604,0.0506 -0.33039,0.0772 -0.15434,0.0265 -0.42443,0.0265 z"
             id="path7015" />
          <path
             d="m 105.67423,221.1617 q 0,0.668 -0.39067,1.05385 -0.38826,0.38344 -1.09244,0.38344 -0.70418,0 -1.09486,-0.38344 -0.38826,-0.38585 -0.38826,-1.05385 0,-0.67283 0.39067,-1.05627 0.39309,-0.38344 1.09245,-0.38344 0.709,0 1.09485,0.38585 0.38826,0.38585 0.38826,1.05386 z m -1.06832,0.65835 q 0.0844,-0.10369 0.1254,-0.24839 0.0434,-0.1471 0.0434,-0.40514 0,-0.23875 -0.0434,-0.40032 -0.0434,-0.16158 -0.12058,-0.25804 -0.0772,-0.0989 -0.18569,-0.13987 -0.10852,-0.041 -0.23392,-0.041 -0.12541,0 -0.22428,0.0338 -0.0965,0.0338 -0.18569,0.13505 -0.0796,0.094 -0.12781,0.25804 -0.0458,0.16399 -0.0458,0.41238 0,0.22186 0.041,0.38585 0.041,0.16158 0.12058,0.26045 0.0772,0.0941 0.18328,0.13746 0.10852,0.0434 0.24598,0.0434 0.11817,0 0.22428,-0.0386 0.10852,-0.041 0.18328,-0.13505 z"
             id="path7017" />
          <path
             d="m 109.01667,222.51459 h -0.87299 v -1.34325 q 0,-0.16399 -0.0169,-0.32556 -0.0169,-0.16399 -0.0579,-0.24116 -0.0482,-0.0892 -0.14228,-0.13022 -0.0916,-0.041 -0.25804,-0.041 -0.11816,0 -0.24115,0.0386 -0.12058,0.0386 -0.26286,0.12299 v 1.91961 h -0.86817 v -2.7082 h 0.86817 v 0.29904 q 0.23151,-0.18087 0.44372,-0.27733 0.21463,-0.0965 0.47508,-0.0965 0.43891,0 0.68489,0.25563 0.24839,0.25563 0.24839,0.76447 z"
             id="path7019" />
          <path
             d="m 111.54641,222.49047 q -0.13987,0.0362 -0.29662,0.0555 -0.15676,0.0217 -0.38344,0.0217 -0.50643,0 -0.75483,-0.20498 -0.24598,-0.20499 -0.24598,-0.70177 v -1.26607 h -0.35691 v -0.58843 h 0.35691 v -0.77411 h 0.86817 v 0.77411 h 0.8127 v 0.58843 h -0.8127 v 0.9598 q 0,0.14228 0.002,0.24839 0.002,0.10611 0.0386,0.19052 0.0338,0.0844 0.11816,0.13505 0.0868,0.0482 0.25081,0.0482 0.0675,0 0.17604,-0.0289 0.11093,-0.0289 0.15434,-0.0531 h 0.0724 z"
             id="path7021" />
          <path
             d="m 114.02792,220.63356 h -0.0772 q -0.0555,-0.0193 -0.17846,-0.0289 -0.12299,-0.01 -0.20498,-0.01 -0.18569,0 -0.32798,0.0241 -0.14228,0.0241 -0.30627,0.082 v 1.8135 h -0.86816 v -2.7082 h 0.86816 v 0.39791 q 0.28698,-0.24598 0.4992,-0.32556 0.21222,-0.082 0.39067,-0.082 0.0458,0 0.1037,0.002 0.0579,0.002 0.10129,0.007 z"
             id="path7023" />
          <path
             d="m 117.28837,221.1617 q 0,0.668 -0.39068,1.05385 -0.38826,0.38344 -1.09244,0.38344 -0.70418,0 -1.09486,-0.38344 -0.38826,-0.38585 -0.38826,-1.05385 0,-0.67283 0.39068,-1.05627 0.39308,-0.38344 1.09244,-0.38344 0.709,0 1.09485,0.38585 0.38827,0.38585 0.38827,1.05386 z m -1.06833,0.65835 q 0.0844,-0.10369 0.1254,-0.24839 0.0434,-0.1471 0.0434,-0.40514 0,-0.23875 -0.0434,-0.40032 -0.0434,-0.16158 -0.12058,-0.25804 -0.0772,-0.0989 -0.18569,-0.13987 -0.10852,-0.041 -0.23392,-0.041 -0.1254,0 -0.22428,0.0338 -0.0965,0.0338 -0.18569,0.13505 -0.0796,0.094 -0.12781,0.25804 -0.0458,0.16399 -0.0458,0.41238 0,0.22186 0.041,0.38585 0.041,0.16158 0.12058,0.26045 0.0772,0.0941 0.18328,0.13746 0.10852,0.0434 0.24598,0.0434 0.11817,0 0.22428,-0.0386 0.10852,-0.041 0.18328,-0.13505 z"
             id="path7025" />
          <path
             d="m 118.77872,222.51459 h -0.86817 v -3.75241 h 0.86817 z"
             id="path7027" />
        </g>
        <g
           aria-label="7.SQL
8. MongoDB
9. React.js"
           id="text5256"
           style="font-weight:bold;font-size:4.9389px;-inkscape-font-specification:'sans-serif Bold';opacity:0.734266;fill:#800000;stroke-width:2;stroke-linejoin:bevel">
          <path
             d="m 141.83217,195.29591 -1.6254,2.877 h -1.03215 l 1.6881,-2.90353 h -1.84485 v -0.6873 h 2.8143 z"
             id="path7030" />
          <path
             d="m 143.49616,198.17291 h -0.90193 v -0.94775 h 0.90193 z"
             id="path7032" />
          <path
             d="m 147.27027,197.0443 q 0,0.53054 -0.45097,0.86334 -0.44855,0.33039 -1.22025,0.33039 -0.44614,0 -0.77894,-0.0772 -0.33038,-0.0796 -0.61977,-0.20016 v -0.86093 h 0.10128 q 0.28698,0.2291 0.64148,0.35209 0.35691,0.12299 0.68489,0.12299 0.0844,0 0.22186,-0.0145 0.13746,-0.0145 0.22428,-0.0482 0.10611,-0.0434 0.17363,-0.10852 0.0699,-0.0651 0.0699,-0.19292 0,-0.11817 -0.10129,-0.20258 -0.0989,-0.0868 -0.2918,-0.13263 -0.20257,-0.0482 -0.42926,-0.0892 -0.22428,-0.0434 -0.42202,-0.10852 -0.45338,-0.14711 -0.65354,-0.39791 -0.19775,-0.25322 -0.19775,-0.62701 0,-0.50161 0.44855,-0.81752 0.45097,-0.31833 1.15756,-0.31833 0.3545,0 0.69935,0.0699 0.34727,0.0675 0.60049,0.17123 v 0.82717 h -0.0989 q -0.21704,-0.17364 -0.53296,-0.28939 -0.3135,-0.11817 -0.64147,-0.11817 -0.11576,0 -0.23152,0.0169 -0.11334,0.0145 -0.21945,0.0579 -0.094,0.0362 -0.16157,0.11093 -0.0675,0.0724 -0.0675,0.1664 0,0.14228 0.10852,0.21945 0.10852,0.0748 0.40997,0.13746 0.19775,0.041 0.37862,0.0796 0.18328,0.0386 0.39308,0.10611 0.41238,0.13505 0.60772,0.36897 0.19775,0.23151 0.19775,0.6029 z"
             id="path7034" />
          <path
             d="m 150.16898,197.28787 q 0.13505,-0.16399 0.20016,-0.38586 0.0651,-0.22427 0.0651,-0.52572 0,-0.32315 -0.0748,-0.54984 -0.0748,-0.22669 -0.19534,-0.36656 -0.12299,-0.14469 -0.28456,-0.2098 -0.15916,-0.0651 -0.3328,-0.0651 -0.17604,0 -0.33279,0.0627 -0.15435,0.0627 -0.28457,0.20739 -0.12058,0.13505 -0.19775,0.37379 -0.0748,0.23634 -0.0748,0.54984 0,0.32074 0.0724,0.54743 0.0748,0.22428 0.19534,0.36656 0.12058,0.14228 0.28215,0.20981 0.16158,0.0675 0.34003,0.0675 0.17846,0 0.34003,-0.0675 0.16158,-0.0699 0.28216,-0.21463 z m 0.0989,0.84163 q 0.01,0.23875 0.13023,0.34245 0.12058,0.1037 0.41238,0.1037 0.0989,0 0.23392,-0.0338 0.13505,-0.0338 0.1881,-0.0603 h 0.0916 v 0.63666 q -0.13505,0.0314 -0.29421,0.0555 -0.15675,0.0241 -0.48232,0.0241 -0.28697,0 -0.5016,-0.0724 -0.21222,-0.0699 -0.3545,-0.20016 -0.13987,-0.12781 -0.20981,-0.30144 -0.0699,-0.17364 -0.082,-0.38585 -0.80547,-0.0458 -1.25643,-0.53779 -0.44856,-0.49437 -0.44856,-1.32154 0,-0.86575 0.49197,-1.36736 0.49196,-0.50402 1.35771,-0.50402 0.86334,0 1.35772,0.50402 0.49437,0.50161 0.49437,1.36736 0,0.63907 -0.28939,1.1045 -0.28939,0.46302 -0.83923,0.6463 z"
             id="path7036" />
          <path
             d="m 154.69309,198.17291 h -2.59003 v -3.59083 h 0.92604 v 2.8963 h 1.66399 z"
             id="path7038" />
          <path
             d="m 141.91417,203.34332 q 0,0.47749 -0.40756,0.78135 -0.40514,0.30386 -1.11415,0.30386 -0.39791,0 -0.68247,-0.082 -0.28457,-0.082 -0.47026,-0.22669 -0.18328,-0.14228 -0.27251,-0.3328 -0.0868,-0.19051 -0.0868,-0.40996 0,-0.2701 0.15675,-0.4775 0.15916,-0.2098 0.54743,-0.36655 v -0.0145 q -0.31351,-0.1447 -0.46061,-0.36415 -0.14711,-0.21945 -0.14711,-0.50884 0,-0.42685 0.3955,-0.69936 0.3955,-0.27251 1.02974,-0.27251 0.66559,0 1.0418,0.24839 0.37862,0.24599 0.37862,0.65836 0,0.25563 -0.15917,0.45579 -0.15916,0.20016 -0.48713,0.34003 v 0.0145 q 0.3762,0.14229 0.55707,0.38344 0.18087,0.24116 0.18087,0.56913 z m -0.99598,-1.65916 q 0,-0.18328 -0.14229,-0.2918 -0.13987,-0.10852 -0.37379,-0.10852 -0.0868,0 -0.17846,0.0217 -0.0892,0.0217 -0.16398,0.0627 -0.0699,0.041 -0.11576,0.10852 -0.0458,0.0651 -0.0458,0.14951 0,0.14229 0.0796,0.22187 0.082,0.0796 0.26528,0.15916 0.0675,0.0289 0.18328,0.0724 0.11816,0.041 0.28456,0.0941 0.11093,-0.13022 0.15917,-0.23392 0.0482,-0.1037 0.0482,-0.25563 z m 0.0748,1.70016 q 0,-0.17363 -0.0868,-0.26286 -0.0868,-0.0892 -0.35691,-0.20498 -0.0796,-0.0362 -0.23151,-0.0892 -0.15193,-0.0531 -0.25563,-0.0916 -0.1037,0.094 -0.1881,0.2291 -0.082,0.13263 -0.082,0.29903 0,0.25081 0.17846,0.40032 0.18087,0.14711 0.47026,0.14711 0.0772,0 0.18086,-0.0217 0.1037,-0.0241 0.17846,-0.0723 0.0868,-0.0555 0.13987,-0.13023 0.0531,-0.0748 0.0531,-0.20257 z"
             id="path7040" />
          <path
             d="m 143.49616,204.34654 h -0.90193 v -0.94775 h 0.90193 z"
             id="path7042" />
          <path
             d="m 149.84824,204.34654 h -0.92122 v -2.40434 l -0.6656,1.56029 h -0.63906 l -0.6656,-1.56029 v 2.40434 h -0.87299 v -3.59083 h 1.07557 l 0.80787,1.80144 0.80547,-1.80144 h 1.07556 z"
             id="path7044" />
          <path
             d="m 153.48489,202.99365 q 0,0.668 -0.39067,1.05385 -0.38827,0.38344 -1.09245,0.38344 -0.70418,0 -1.09485,-0.38344 -0.38826,-0.38585 -0.38826,-1.05385 0,-0.67283 0.39067,-1.05627 0.39309,-0.38344 1.09244,-0.38344 0.70901,0 1.09486,0.38585 0.38826,0.38585 0.38826,1.05386 z m -1.06833,0.65835 q 0.0844,-0.10369 0.1254,-0.24839 0.0434,-0.1471 0.0434,-0.40514 0,-0.23875 -0.0434,-0.40032 -0.0434,-0.16158 -0.12057,-0.25804 -0.0772,-0.0989 -0.18569,-0.13987 -0.10853,-0.041 -0.23393,-0.041 -0.1254,0 -0.22427,0.0338 -0.0965,0.0338 -0.18569,0.13505 -0.0796,0.0941 -0.12782,0.25804 -0.0458,0.16399 -0.0458,0.41238 0,0.22186 0.041,0.38585 0.041,0.16158 0.12058,0.26045 0.0772,0.0941 0.18328,0.13746 0.10852,0.0434 0.24598,0.0434 0.11816,0 0.22427,-0.0386 0.10852,-0.041 0.18328,-0.13505 z"
             id="path7046" />
          <path
             d="m 156.82733,204.34654 h -0.87299 v -1.34325 q 0,-0.16399 -0.0169,-0.32556 -0.0169,-0.16399 -0.0579,-0.24116 -0.0482,-0.0892 -0.14228,-0.13022 -0.0916,-0.041 -0.25804,-0.041 -0.11817,0 -0.24116,0.0386 -0.12058,0.0386 -0.26286,0.12299 v 1.91961 h -0.86816 v -2.7082 h 0.86816 v 0.29904 q 0.23151,-0.18087 0.44373,-0.27733 0.21463,-0.0965 0.47508,-0.0965 0.43891,0 0.68489,0.25563 0.24839,0.25563 0.24839,0.76447 z"
             id="path7048" />
          <path
             d="m 160.259,204.03544 q 0,0.38103 -0.10853,0.64148 -0.10852,0.26045 -0.30385,0.40756 -0.19534,0.14952 -0.47267,0.21463 -0.27492,0.0675 -0.62219,0.0675 -0.28215,0 -0.55707,-0.0338 -0.27251,-0.0338 -0.47267,-0.082 v -0.67765 h 0.10611 q 0.15916,0.0627 0.38826,0.11334 0.2291,0.0531 0.40997,0.0531 0.24116,0 0.39068,-0.0458 0.15192,-0.0434 0.23151,-0.1254 0.0748,-0.0772 0.10852,-0.19775 0.0338,-0.12058 0.0338,-0.28939 v -0.0506 q -0.15675,0.12781 -0.34727,0.20257 -0.19051,0.0748 -0.42443,0.0748 -0.56913,0 -0.87782,-0.34244 -0.30868,-0.34244 -0.30868,-1.0418 0,-0.33521 0.0941,-0.57878 0.0941,-0.24357 0.26528,-0.42443 0.15916,-0.16881 0.39067,-0.26287 0.23392,-0.0941 0.47749,-0.0941 0.21946,0 0.39791,0.0531 0.18087,0.0506 0.32798,0.14228 l 0.0314,-0.12058 h 0.84164 z m -0.86817,-0.5426 v -1.22749 q -0.0748,-0.0314 -0.18328,-0.0482 -0.10852,-0.0193 -0.19534,-0.0193 -0.34244,0 -0.51366,0.19775 -0.17122,0.19533 -0.17122,0.54742 0,0.39068 0.14469,0.54502 0.14711,0.15434 0.43408,0.15434 0.13023,0 0.25563,-0.041 0.1254,-0.041 0.2291,-0.10852 z"
             id="path7050" />
          <path
             d="m 163.84742,202.99365 q 0,0.668 -0.39068,1.05385 -0.38826,0.38344 -1.09244,0.38344 -0.70418,0 -1.09485,-0.38344 -0.38827,-0.38585 -0.38827,-1.05385 0,-0.67283 0.39068,-1.05627 0.39308,-0.38344 1.09244,-0.38344 0.709,0 1.09485,0.38585 0.38827,0.38585 0.38827,1.05386 z m -1.06833,0.65835 q 0.0844,-0.10369 0.1254,-0.24839 0.0434,-0.1471 0.0434,-0.40514 0,-0.23875 -0.0434,-0.40032 -0.0434,-0.16158 -0.12058,-0.25804 -0.0772,-0.0989 -0.18569,-0.13987 -0.10852,-0.041 -0.23392,-0.041 -0.1254,0 -0.22428,0.0338 -0.0965,0.0338 -0.18569,0.13505 -0.0796,0.0941 -0.12781,0.25804 -0.0458,0.16399 -0.0458,0.41238 0,0.22186 0.041,0.38585 0.041,0.16158 0.12057,0.26045 0.0772,0.0941 0.18328,0.13746 0.10852,0.0434 0.24598,0.0434 0.11817,0 0.22428,-0.0386 0.10852,-0.041 0.18328,-0.13505 z"
             id="path7052" />
          <path
             d="m 167.91092,202.55474 q 0,0.50161 -0.2291,0.89952 -0.2291,0.39549 -0.57878,0.60771 -0.26286,0.15917 -0.57637,0.22187 -0.3135,0.0627 -0.74276,0.0627 h -1.26608 v -3.59083 h 1.30225 q 0.43891,0 0.75724,0.0748 0.31832,0.0723 0.53537,0.20739 0.37138,0.22669 0.5836,0.61254 0.21463,0.38344 0.21463,0.90434 z m -0.9574,-0.007 q 0,-0.3545 -0.13022,-0.6053 -0.12782,-0.25322 -0.40756,-0.3955 -0.14228,-0.0699 -0.2918,-0.094 -0.1471,-0.0265 -0.44614,-0.0265 h -0.23392 v 2.24759 h 0.23392 q 0.33039,0 0.48473,-0.0289 0.15434,-0.0314 0.30144,-0.11093 0.25322,-0.1447 0.37138,-0.38585 0.11817,-0.24357 0.11817,-0.60049 z"
             id="path7054" />
          <path
             d="m 171.68985,203.24686 q 0,0.26045 -0.10611,0.46543 -0.1037,0.20499 -0.28698,0.34004 -0.21222,0.15916 -0.46784,0.22668 -0.25322,0.0675 -0.64389,0.0675 h -1.56752 v -3.59083 h 1.39388 q 0.43409,0 0.63425,0.0289 0.20257,0.0289 0.40032,0.12781 0.20498,0.1037 0.30386,0.27974 0.10128,0.17363 0.10128,0.39791 0,0.26045 -0.13746,0.46061 -0.13746,0.19775 -0.38826,0.30868 v 0.0193 q 0.35209,0.0699 0.55707,0.28939 0.2074,0.21946 0.2074,0.57878 z m -1.18649,-1.47588 q 0,-0.0892 -0.0458,-0.17846 -0.0434,-0.0892 -0.15676,-0.13263 -0.10128,-0.0386 -0.25321,-0.041 -0.14952,-0.005 -0.42203,-0.005 h -0.0868 v 0.75964 h 0.14469 q 0.21945,0 0.37379,-0.007 0.15435,-0.007 0.24357,-0.0482 0.12541,-0.0555 0.16399,-0.14228 0.0386,-0.0892 0.0386,-0.20498 z m 0.22668,1.46141 q 0,-0.17122 -0.0675,-0.26286 -0.0651,-0.094 -0.22428,-0.13987 -0.10852,-0.0314 -0.29903,-0.0338 -0.19052,-0.002 -0.39791,-0.002 h -0.20257 v 0.89469 h 0.0675 q 0.39068,0 0.55949,-0.002 0.16881,-0.002 0.31109,-0.0627 0.14469,-0.0603 0.19775,-0.15917 0.0555,-0.10128 0.0555,-0.23151 z"
             id="path7056" />
          <path
             d="m 141.82976,208.52338 q 0,0.45096 -0.11575,0.83923 -0.11576,0.38826 -0.35209,0.65353 -0.25563,0.28698 -0.63425,0.43168 -0.37861,0.14228 -0.88263,0.14228 -0.17846,0 -0.38585,-0.0217 -0.2074,-0.0217 -0.27251,-0.0386 v -0.70659 h 0.0965 q 0.0724,0.0338 0.20498,0.0724 0.13505,0.0386 0.36656,0.0386 0.18811,0 0.36897,-0.0458 0.18087,-0.0482 0.3111,-0.14952 0.14228,-0.10852 0.23392,-0.27009 0.0916,-0.16399 0.12299,-0.39309 -0.20981,0.12058 -0.39068,0.18569 -0.17845,0.0627 -0.44614,0.0627 -0.20257,0 -0.38826,-0.0482 -0.18328,-0.0506 -0.33521,-0.15434 -0.20016,-0.14228 -0.32074,-0.37379 -0.11816,-0.23393 -0.11816,-0.58843 0,-0.57636 0.40032,-0.9381 0.40273,-0.36415 1.05385,-0.36415 0.33521,0 0.59325,0.0892 0.26045,0.0868 0.44855,0.26769 0.21946,0.20739 0.33039,0.52813 0.11093,0.32074 0.11093,0.78135 z m -0.92363,-0.13505 q 0,-0.29421 -0.0579,-0.48231 -0.0555,-0.19052 -0.15434,-0.29421 -0.0699,-0.0772 -0.16157,-0.11094 -0.0916,-0.0338 -0.19293,-0.0338 -0.094,0 -0.18087,0.0338 -0.0844,0.0314 -0.16399,0.11094 -0.0747,0.0772 -0.12299,0.20257 -0.0458,0.1254 -0.0458,0.29903 0,0.16881 0.0506,0.28457 0.0506,0.11334 0.13987,0.18087 0.0844,0.0651 0.19775,0.0916 0.11575,0.0265 0.2508,0.0265 0.10852,0 0.23634,-0.0265 0.12781,-0.0289 0.19774,-0.0579 0,-0.0265 0.002,-0.0748 0.005,-0.0506 0.005,-0.14952 z"
             id="path7058" />
          <path
             d="m 143.49616,210.52016 h -0.90193 v -0.94775 h 0.90193 z"
             id="path7060" />
          <path
             d="m 148.09744,208.02901 q 0,-0.13505 -0.0555,-0.23151 -0.0555,-0.0965 -0.19051,-0.15193 -0.0941,-0.0386 -0.21946,-0.0458 -0.1254,-0.01 -0.2918,-0.01 h -0.3352 v 0.96704 h 0.28456 q 0.22187,0 0.37138,-0.0217 0.14952,-0.0217 0.25081,-0.0989 0.0965,-0.0747 0.13987,-0.16398 0.0458,-0.0916 0.0458,-0.24357 z m 1.44453,2.49115 h -1.13103 l -0.9791,-1.31672 H 147.005 v 1.31672 h -0.92123 v -3.59083 h 1.55306 q 0.31832,0 0.54742,0.0362 0.2291,0.0362 0.42926,0.15675 0.20258,0.12058 0.32074,0.3135 0.12058,0.19052 0.12058,0.4799 0,0.39791 -0.18569,0.64872 -0.18328,0.2508 -0.52572,0.4172 z"
             id="path7062" />
          <path
             d="m 152.56608,209.32643 h -1.98713 q 0.0193,0.31833 0.24115,0.48714 0.22428,0.16881 0.65836,0.16881 0.27492,0 0.53296,-0.0989 0.25804,-0.0989 0.40755,-0.21222 h 0.0965 v 0.69694 q -0.29421,0.11817 -0.55466,0.17123 -0.26045,0.0531 -0.57637,0.0531 -0.81511,0 -1.24919,-0.36656 -0.43409,-0.36656 -0.43409,-1.04421 0,-0.67042 0.40997,-1.06109 0.41238,-0.39309 1.12862,-0.39309 0.66077,0 0.99356,0.33521 0.3328,0.3328 0.3328,0.95981 z m -0.86334,-0.50884 q -0.007,-0.27251 -0.13505,-0.40996 -0.12781,-0.13746 -0.39791,-0.13746 -0.2508,0 -0.41238,0.13022 -0.16157,0.13023 -0.18087,0.4172 z"
             id="path7064" />
          <path
             d="m 154.81849,209.81357 v -0.56431 q -0.17605,0.0145 -0.38103,0.041 -0.20498,0.0241 -0.31109,0.0579 -0.13023,0.041 -0.20016,0.12058 -0.0675,0.0772 -0.0675,0.20498 0,0.0844 0.0145,0.13746 0.0145,0.0531 0.0724,0.10129 0.0555,0.0482 0.13264,0.0723 0.0772,0.0217 0.24115,0.0217 0.13023,0 0.26287,-0.0531 0.13504,-0.0531 0.23633,-0.13987 z m 0,0.41962 q -0.0699,0.053 -0.17363,0.12781 -0.1037,0.0748 -0.19534,0.11817 -0.12781,0.0579 -0.26527,0.0844 -0.13746,0.0289 -0.30145,0.0289 -0.38585,0 -0.6463,-0.23875 -0.26045,-0.23874 -0.26045,-0.61012 0,-0.29663 0.13263,-0.48473 0.13264,-0.1881 0.37621,-0.29662 0.24116,-0.10852 0.59807,-0.15434 0.35691,-0.0458 0.74035,-0.0675 v -0.0145 q 0,-0.22427 -0.18328,-0.30868 -0.18328,-0.0868 -0.54019,-0.0868 -0.21463,0 -0.4582,0.0772 -0.24357,0.0747 -0.34968,0.11575 h -0.0796 v -0.65354 q 0.13746,-0.0362 0.44614,-0.0844 0.3111,-0.0506 0.62219,-0.0506 0.74035,0 1.06833,0.2291 0.33038,0.22668 0.33038,0.71382 v 1.84244 h -0.86093 z"
             id="path7066" />
          <path
             d="m 157.88842,210.59251 q -0.3545,0 -0.64871,-0.0844 -0.2918,-0.0844 -0.50884,-0.26045 -0.21463,-0.17604 -0.3328,-0.44372 -0.11817,-0.26769 -0.11817,-0.62701 0,-0.37862 0.1254,-0.65354 0.12782,-0.27492 0.35451,-0.45579 0.21945,-0.17122 0.50643,-0.2508 0.28697,-0.0796 0.59565,-0.0796 0.27733,0 0.51126,0.0603 0.23392,0.0603 0.43649,0.15675 v 0.74035 h -0.12299 q -0.0506,-0.0434 -0.12299,-0.10128 -0.0699,-0.0579 -0.17363,-0.11335 -0.0989,-0.0531 -0.21704,-0.0868 -0.11817,-0.0362 -0.27492,-0.0362 -0.34727,0 -0.53537,0.22187 -0.18569,0.21945 -0.18569,0.59807 0,0.39067 0.19051,0.59324 0.19293,0.20258 0.54502,0.20258 0.16398,0 0.29421,-0.0362 0.13264,-0.0386 0.21945,-0.0892 0.082,-0.0482 0.1447,-0.10128 0.0627,-0.0531 0.11575,-0.1037 h 0.12299 v 0.74035 q -0.20498,0.0965 -0.42926,0.15193 -0.22186,0.0579 -0.49196,0.0579 z"
             id="path7068" />
          <path
             d="m 161.11511,210.49605 q -0.13988,0.0362 -0.29663,0.0555 -0.15675,0.0217 -0.38344,0.0217 -0.50643,0 -0.75482,-0.20499 -0.24598,-0.20498 -0.24598,-0.70176 v -1.26608 h -0.35691 v -0.58842 h 0.35691 v -0.77412 h 0.86817 v 0.77412 h 0.8127 v 0.58842 h -0.8127 v 0.95981 q 0,0.14228 0.002,0.24839 0.002,0.10611 0.0386,0.19051 0.0338,0.0844 0.11817,0.13505 0.0868,0.0482 0.2508,0.0482 0.0675,0 0.17605,-0.0289 0.11093,-0.0289 0.15434,-0.0531 h 0.0724 z"
             id="path7070" />
          <path
             d="m 162.56687,210.52016 h -0.90193 v -0.94775 h 0.90193 z"
             id="path7072" />
          <path
             d="m 164.59018,210.56839 q 0,0.4582 -0.28215,0.71383 -0.28216,0.25804 -0.72589,0.25804 -0.23633,0 -0.43167,-0.0217 -0.19292,-0.0193 -0.28215,-0.041 v -0.62219 h 0.0675 q 0.0724,0.0241 0.18087,0.041 0.10852,0.0169 0.17122,0.0169 0.2508,0 0.34244,-0.14952 0.0916,-0.14952 0.0916,-0.49196 v -1.87138 h -0.51366 v -0.58842 h 1.38183 z m 0,-3.14227 h -0.92363 v -0.65836 h 0.92363 z"
             id="path7074" />
          <path
             d="m 167.7614,209.66164 q 0,0.41962 -0.37621,0.67765 -0.3762,0.25563 -1.02974,0.25563 -0.36173,0 -0.65595,-0.0675 -0.29421,-0.0675 -0.47266,-0.14952 v -0.71383 h 0.0796 q 0.0651,0.0458 0.14951,0.10129 0.0868,0.0531 0.24357,0.11576 0.13505,0.0555 0.30627,0.0965 0.17122,0.0386 0.36656,0.0386 0.25563,0 0.37862,-0.0555 0.12299,-0.0579 0.12299,-0.16881 0,-0.0989 -0.0724,-0.14229 -0.0724,-0.0458 -0.27492,-0.0868 -0.0965,-0.0217 -0.26286,-0.0458 -0.16399,-0.0265 -0.29903,-0.0627 -0.36897,-0.0965 -0.54743,-0.29904 -0.17846,-0.20498 -0.17846,-0.50884 0,-0.39067 0.36897,-0.64871 0.37139,-0.26045 1.01286,-0.26045 0.30386,0 0.58119,0.0627 0.27975,0.0603 0.4365,0.13022 v 0.68489 h -0.0748 q -0.19293,-0.13264 -0.44132,-0.21463 -0.24598,-0.0844 -0.49919,-0.0844 -0.20981,0 -0.35451,0.0579 -0.14228,0.0579 -0.14228,0.16399 0,0.0965 0.0651,0.14711 0.0651,0.0506 0.30627,0.10128 0.13264,0.0265 0.28457,0.0531 0.15434,0.0241 0.30868,0.0627 0.34244,0.0892 0.50643,0.28215 0.16399,0.19052 0.16399,0.47749 z"
             id="path7076" />
        </g>
        <path
           style="opacity:0.734266;fill:#800000;stroke-width:2;stroke-linejoin:bevel"
           d="M 65.352083,191.29375 H 112.7125 Z"
           id="path6779" />
      </g>
    </g>
  </g>
</svg>
