<?xml version="1.0" encoding="UTF-8" standalone="no"?>
<!-- Created with Inkscape (http://www.inkscape.org/) -->

<svg
   width="210mm"
   height="297mm"
   viewBox="0 0 210 297"
   version="1.1"
   id="svg858"
   sodipodi:docname="wireSphere.svg"
   inkscape:version="1.2.2 (732a01da63, 2022-12-09)"
   xmlns:inkscape="http://www.inkscape.org/namespaces/inkscape"
   xmlns:sodipodi="http://sodipodi.sourceforge.net/DTD/sodipodi-0.dtd"
   xmlns="http://www.w3.org/2000/svg"
   xmlns:svg="http://www.w3.org/2000/svg">
  <sodipodi:namedview
     id="namedview860"
     pagecolor="#ffffff"
     bordercolor="#cccccc"
     borderopacity="1"
     inkscape:showpageshadow="0"
     inkscape:pageopacity="1"
     inkscape:pagecheckerboard="0"
     inkscape:deskcolor="#d1d1d1"
     inkscape:document-units="mm"
     showgrid="false"
     inkscape:zoom="1.4142136"
     inkscape:cx="396.68689"
     inkscape:cy="217.43533"
     inkscape:window-width="1920"
     inkscape:window-height="991"
     inkscape:window-x="-9"
     inkscape:window-y="-9"
     inkscape:window-maximized="1"
     inkscape:current-layer="layer1" />
  <defs
     id="defs855" />
  <g
     inkscape:label="Layer 1"
     inkscape:groupmode="layer"
     id="layer1">
    <g
       id="g28424"
       transform="rotate(-30,-160.13138,233.47227)">
      <path
         id="path9534"
         style="color:#000000;opacity:1;fill:#ff7200;fill-opacity:1;-inkscape-stroke:none"
         d="m 95.884587,173.53778 c -3.826164,-1.41265 -7.233495,-3.68821 -9.986471,-6.59133 l 5.17e-4,-5.1e-4 c -0.850201,-0.89705 -1.313437,-1.81603 -1.424203,-2.7249 -0.110765,-0.90887 0.127218,-1.81323 0.70125,-2.69131 1.14806,-1.75616 3.655904,-3.39119 7.34012,-4.57647 7.368434,-2.37053 17.60782,-2.37054 24.97625,0 3.68422,1.18528 6.19206,2.82031 7.34012,4.57647 0.57403,0.87808 0.81202,1.78244 0.70125,2.69131 -0.10658,0.87457 -0.53871,1.75837 -1.3286,2.62309 -2.76921,2.95125 -6.21044,5.26401 -10.08052,6.69314 0.15643,-0.085 0.30682,-0.17219 0.4501,-0.26149 0.77347,-0.48198 1.35266,-1.02588 1.69499,-1.6154 0.34231,-0.58951 0.44248,-1.22998 0.25011,-1.87069 -0.38473,-1.28143 -1.82821,-2.35104 -3.8809,-3.11557 -2.05268,-0.76452 -4.73017,-1.2206 -7.63467,-1.2206 -2.90452,0 -5.581999,0.45608 -7.63468,1.2206 -2.052679,0.76453 -3.49617,1.83414 -3.8809,3.11557 -0.192363,0.64071 -0.09222,1.28118 0.250114,1.87069 0.342335,0.58952 0.921521,1.13342 1.694987,1.6154 0.143589,0.0895 0.29434,0.1768 0.451136,0.262 z M 79.110417,153.6098 c -0.283736,-1.54875 -0.433049,-3.1446 -0.433049,-4.77542 0,-2.23054 0.277925,-4.39596 0.799951,-6.4642 l 0.0067,0.002 c 0.68321,-2.69772 3.754923,-5.12404 8.32404,-6.85953 4.569116,-1.73549 10.617664,-2.78329 17.195331,-2.78329 6.57765,0 12.62621,1.0478 17.19533,2.78329 4.56911,1.73549 7.64083,4.16181 8.32404,6.85953 l 0.007,-0.002 c 0.52202,2.06824 0.79995,4.23366 0.79995,6.4642 0,1.63082 -0.14931,3.22667 -0.43305,4.77542 -0.18123,-1.51757 -1.0886,-2.98568 -2.60811,-4.30671 -2.09949,-1.82528 -5.36939,-3.39164 -9.56789,-4.50206 -8.397,-2.22083 -19.036973,-2.22083 -27.433984,0 -4.198503,1.11042 -7.468915,2.67678 -9.568408,4.50206 -1.519507,1.32103 -2.426366,2.78914 -2.607593,4.30671 z m 8.849589,-24.83983 c 3.922028,-3.33455 8.83371,-5.53955 14.233754,-6.11229 0.0756,-0.008 0.15148,-0.0162 0.22738,-0.0232 0.14437,-0.0141 0.28904,-0.0271 0.43408,-0.0388 10e-4,-7e-5 0.002,7e-5 0.003,0 0.078,-0.006 0.1559,-0.0121 0.2341,-0.0181 0.1535,-0.011 0.30726,-0.0209 0.46147,-0.0289 0.005,-2.2e-4 0.009,-7.9e-4 0.014,-0.001 0.0596,-0.003 0.1191,-0.006 0.1788,-0.009 0.009,-4e-4 0.0189,-6.1e-4 0.0279,-0.001 0.1315,-0.007 0.26333,-0.0115 0.39533,-0.0155 0.0981,-0.003 0.19584,-0.005 0.29404,-0.007 0.0102,-2.1e-4 0.0204,-3.3e-4 0.0305,-5.2e-4 0.13244,-0.003 0.265,-0.004 0.39791,-0.005 0.0741,-3.1e-4 0.1481,-3.1e-4 0.2222,0 0.13291,0.001 0.26547,0.002 0.39791,0.005 0.0102,1.9e-4 0.0204,3.1e-4 0.0305,5.2e-4 0.0982,0.002 0.19594,0.004 0.29404,0.007 0.13199,0.004 0.26384,0.01 0.39533,0.0155 0.009,3.9e-4 0.0189,6e-4 0.0279,0.001 0.0596,0.003 0.1192,0.006 0.1788,0.009 0.004,2.2e-4 0.009,7.7e-4 0.0145,0.001 0.15335,0.008 0.30625,0.018 0.45889,0.0289 0.0789,0.006 0.15756,0.0121 0.23616,0.0181 0.001,7e-5 0.002,-7e-5 0.003,0 0.14504,0.0117 0.28971,0.0248 0.43408,0.0388 0.0759,0.007 0.15178,0.0152 0.22738,0.0232 5.39983,0.57271 10.31128,2.77742 14.23324,6.11178 -3.84594,-2.33898 -10.16303,-3.76102 -17.04237,-3.76102 -6.879712,0 -13.197017,1.42234 -17.042891,3.76153 z" />
      <path
         id="path22609"
         style="color:#000000;opacity:1;fill:#ff4800;fill-opacity:1;-inkscape-stroke:none"
         d="m 104.89231,122.50983 c -0.13291,0.001 -0.26547,0.002 -0.39791,0.005 -0.0101,1.9e-4 -0.0203,3e-4 -0.0305,5.1e-4 -0.0982,0.002 -0.19594,0.004 -0.29404,0.007 -0.132,0.004 -0.26383,0.008 -0.39533,0.0155 -0.009,3.9e-4 -0.0189,6.3e-4 -0.0279,10e-4 -0.0597,0.003 -0.1192,0.006 -0.1788,0.009 -0.005,2.1e-4 -0.009,8.1e-4 -0.014,0.001 -0.15421,0.008 -0.30797,0.0179 -0.46147,0.0289 -0.0782,0.006 -0.1561,0.0121 -0.2341,0.0181 -0.001,7e-5 -0.002,-7e-5 -0.003,0 -0.14504,0.0117 -0.28971,0.0247 -0.43408,0.0388 -0.0759,0.007 -0.15178,0.0153 -0.22738,0.0233 -0.22698,0.0241 -0.45277,0.0524 -0.67799,0.0822 1.37799,0.64738 2.69098,1.40957 3.92741,2.27428 6.70767,0.0593 12.8395,1.46642 16.60312,3.75533 -3.92196,-3.33436 -8.83342,-5.53906 -14.23324,-6.11177 -0.0756,-0.008 -0.15148,-0.0163 -0.22738,-0.0233 -0.14437,-0.014 -0.28904,-0.0271 -0.43408,-0.0388 -0.001,-7e-5 -0.002,7e-5 -0.003,0 -0.0786,-0.006 -0.15726,-0.0121 -0.23616,-0.0181 -0.15264,-0.0109 -0.30554,-0.0209 -0.45889,-0.0289 -0.005,-2.3e-4 -0.0105,-8.1e-4 -0.0145,-10e-4 l -0.1788,-0.009 c -0.009,-4e-4 -0.0189,-6.4e-4 -0.0279,-0.001 -0.13149,-0.005 -0.26334,-0.0115 -0.39533,-0.0155 -0.0981,-0.003 -0.19584,-0.005 -0.29404,-0.007 -0.0101,-2.1e-4 -0.0203,-3.2e-4 -0.0305,-5.1e-4 -0.13244,-0.003 -0.265,-0.004 -0.39791,-0.005 -0.0741,-3.1e-4 -0.1481,-3.1e-4 -0.2222,0 z m 8.22017,10.77247 c 1.9496,3.28928 3.21132,7.03395 3.58427,11.03706 0.68662,0.1473 1.36264,0.3068 2.02365,0.48162 4.1985,1.11042 7.46841,2.67677 9.56789,4.50205 1.51951,1.32103 2.42688,2.78915 2.60811,4.30672 0.28374,-1.54875 0.43357,-3.14461 0.43357,-4.77542 0,-2.23054 -0.27793,-4.39597 -0.79995,-6.46421 l -0.007,0.002 c -0.68321,-2.69772 -3.75493,-5.12404 -8.32404,-6.85953 -2.60587,-0.98979 -5.69426,-1.75474 -9.08626,-2.23036 z m 1.96318,23.00325 c -1.26138,3.30737 -3.1634,6.29867 -5.55521,8.82117 l 0.002,0.002 c -0.0576,0.0608 -0.11685,0.12087 -0.17725,0.18087 -0.14698,0.15211 -0.29646,0.30205 -0.447,0.45062 1.38282,0.20992 2.65033,0.52782 3.74034,0.93379 2.05269,0.76453 3.49617,1.83415 3.8809,3.11558 0.19237,0.64071 0.0922,1.28117 -0.25011,1.87068 -0.34233,0.58952 -0.92152,1.13343 -1.69499,1.61541 -0.14328,0.0893 -0.29367,0.17648 -0.4501,0.26148 3.87008,-1.42913 7.31131,-3.74188 10.08052,-6.69313 0.78989,-0.86472 1.22202,-1.74853 1.3286,-2.6231 0.11077,-0.90887 -0.12722,-1.81323 -0.70125,-2.6913 -1.14806,-1.75616 -3.6559,-3.39119 -7.34012,-4.57647 -0.77532,-0.24943 -1.58418,-0.47072 -2.41639,-0.66766 z m -20.083525,16.69097 c -0.118402,0.0215 -0.237109,0.0416 -0.356051,0.0615 0.411127,0.1763 0.826889,0.34404 1.248503,0.49971 -0.156796,-0.0852 -0.307547,-0.1725 -0.451136,-0.262 -0.155867,-0.0971 -0.301577,-0.19719 -0.441316,-0.29921 z" />
      <path
         id="path2271"
         style="color:#000000;opacity:1;fill:#ffcc00;-inkscape-stroke:none"
         d="m 95.202008,124.44706 c -3.784775,1.52006 -7.126532,3.89087 -9.796484,6.87053 l 5.32e-4,4.9e-4 c -0.824548,0.92069 -1.261665,1.85237 -1.346738,2.76401 -0.08507,0.91163 0.178337,1.80892 0.77692,2.67045 1.197163,1.72306 3.750149,3.28667 7.466347,4.3675 7.432396,2.16165 17.667725,1.8727 24.966315,-0.70484 3.64931,-1.28878 6.11001,-2.99393 7.20805,-4.78179 0.54902,-0.89393 0.7614,-1.80464 0.62502,-2.71003 -0.13122,-0.87121 -0.58812,-1.74246 -1.40209,-2.58455 -2.8514,-2.87192 -6.35652,-5.08665 -10.26539,-6.40599 0.15876,0.0806 0.31155,0.16346 0.4573,0.24868 0.78676,0.45996 1.38107,0.9873 1.7399,1.56692 0.35881,0.57962 0.47701,1.21701 0.3028,1.86289 -0.34841,1.29178 -1.76113,2.4017 -3.79143,3.22385 -2.03029,0.82214 -4.69384,1.3536 -7.59718,1.43557 -2.90337,0.082 -5.592664,-0.29837 -7.666102,-1.00466 -2.07344,-0.7063 -3.546541,-1.73475 -3.96728,-3.00481 -0.210368,-0.63503 -0.128339,-1.27807 0.197222,-1.877 0.325563,-0.59895 0.889169,-1.15898 1.648725,-1.66259 0.141006,-0.0935 0.289233,-0.18504 0.443563,-0.27463 z m -16.205113,20.39342 c -0.239916,1.55614 -0.344134,3.15557 -0.298112,4.78574 0.06295,2.22965 0.401871,4.38636 0.982055,6.43905 l 0.0066,-0.002 c 0.759069,2.67736 3.898031,5.01603 8.514304,6.62189 4.616273,1.60585 10.691983,2.48254 17.267048,2.29692 6.57503,-0.18562 12.59161,-1.4037 17.10993,-3.26744 4.51832,-1.86374 7.52034,-4.37578 8.12715,-7.09171 l 0.007,0.002 c 0.46345,-2.08214 0.68016,-4.25455 0.61721,-6.4842 -0.046,-1.63017 -0.24031,-3.22117 -0.56764,-4.76129 -0.13833,1.52208 -1.00391,3.01521 -2.48553,4.37859 -2.04715,1.8838 -5.27154,3.54182 -9.43703,4.77028 -8.33099,2.45691 -18.966741,2.75718 -27.423079,0.7742 -4.228167,-0.99149 -7.54148,-2.46494 -9.691647,-4.23024 -1.556182,-1.27763 -2.504111,-2.71956 -2.728092,-4.23141 z m 9.547056,24.58019 c 4.014569,3.22255 8.986518,5.28806 14.400589,5.70818 0.0758,0.006 0.15188,0.0119 0.22795,0.0168 0.14471,0.01 0.28969,0.0189 0.435,0.0265 0.001,4e-5 0.002,-1.3e-4 0.003,-9e-5 0.0781,0.004 0.15618,0.008 0.23452,0.0115 0.15375,0.007 0.30772,0.0122 0.4621,0.0159 0.005,8e-5 0.009,5.4e-4 0.0139,6.1e-4 0.0597,10e-4 0.11922,0.003 0.17898,0.004 0.009,1.5e-4 0.0189,8e-5 0.0279,2.1e-4 0.13162,0.002 0.26355,0.004 0.39561,0.004 0.0982,2.3e-4 0.1959,-5.3e-4 0.29412,-0.001 0.0102,-8e-5 0.0204,-2.5e-4 0.0305,-3.4e-4 0.13248,-7.4e-4 0.26501,-0.003 0.3979,-0.006 0.0741,-0.002 0.14805,-0.004 0.22211,-0.006 0.13283,-0.005 0.26531,-0.009 0.39761,-0.0162 0.0102,-4.8e-4 0.0204,-8.9e-4 0.0305,-0.001 0.0981,-0.005 0.19575,-0.01 0.29373,-0.0153 0.13182,-0.008 0.26345,-0.0174 0.39473,-0.0266 0.009,-6.4e-4 0.0189,-0.001 0.0279,-0.002 0.0596,-0.005 0.11899,-0.009 0.17848,-0.014 0.004,-3.3e-4 0.009,-0.001 0.0145,-0.001 0.15307,-0.0123 0.30562,-0.0266 0.4579,-0.0418 0.0787,-0.008 0.15715,-0.0165 0.23555,-0.0248 0.001,-1e-4 0.002,10e-6 0.003,-8e-5 0.14465,-0.0158 0.28889,-0.033 0.43281,-0.051 0.0757,-0.009 0.15129,-0.0196 0.22664,-0.0296 5.38151,-0.72486 10.22879,-3.0673 14.05509,-6.51101 -3.7784,2.44658 -10.05284,4.04633 -16.92944,4.24046 -6.876988,0.19415 -13.231921,-1.04934 -17.142276,-3.27907 z"
         inkscape:transform-center-x="1.8742485"
         inkscape:transform-center-y="-0.070885075" />
      <path
         id="path16796"
         style="color:#000000;opacity:1;fill:#ffd700;fill-opacity:1;-inkscape-stroke:none"
         inkscape:transform-center-x="1.8742485"
         inkscape:transform-center-y="-0.070885075"
         d="m 95.201941,124.44718 c -3.784771,1.52006 -7.126352,3.89073 -9.796301,6.87039 l 5.16e-4,5.1e-4 c -0.824547,0.92069 -1.261614,1.85254 -1.346687,2.76418 -0.08507,0.91162 0.178114,1.80859 0.776696,2.67012 1.197162,1.72305 3.750017,3.28686 7.466211,4.36769 0.577812,0.16805 1.174358,0.31986 1.783354,0.45837 0.723798,-3.6209 2.183259,-6.97598 4.215763,-9.90379 -0.499329,-0.12046 -0.975343,-0.25674 -1.421618,-0.40876 -2.073438,-0.7063 -3.546461,-1.73441 -3.9672,-3.00447 -0.210368,-0.63503 -0.128673,-1.27796 0.196887,-1.87689 0.325563,-0.59895 0.88944,-1.15933 1.648995,-1.66294 0.141006,-0.0935 0.289054,-0.18482 0.443384,-0.27441 z m -16.205212,20.39307 c -0.239916,1.55614 -0.344195,3.15559 -0.298173,4.78576 0.06295,2.22965 0.402185,4.38671 0.982368,6.4394 l 0.0067,-0.002 c 0.759069,2.67736 3.897941,5.01596 8.514209,6.62182 3.474548,1.20868 7.776084,2.00385 12.494847,2.24431 -2.868512,-3.0805 -5.015315,-6.84194 -6.169135,-11.01587 -1.062511,-0.17172 -2.102763,-0.37492 -3.110921,-0.61133 -4.228163,-0.99149 -7.541233,-2.46493 -9.691398,-4.23023 -1.55618,-1.27763 -2.504018,-2.71942 -2.727999,-4.23127 z m 9.549287,24.58197 c 4.014214,3.22162 8.985445,5.28658 14.398604,5.70663 0.0758,0.006 0.15182,0.0121 0.22789,0.0171 0.14471,0.01 0.28981,0.0187 0.43512,0.0263 0.001,4e-5 0.002,-4e-5 0.003,0 0.0781,0.004 0.15575,0.008 0.23409,0.0114 0.15375,0.007 0.30813,0.0123 0.46251,0.016 0.005,8e-5 0.009,4.5e-4 0.0134,5.2e-4 0.0597,10e-4 0.11956,0.003 0.17932,0.004 0.009,1.5e-4 0.0189,-1.3e-4 0.0279,0 0.13162,0.002 0.26326,0.004 0.39532,0.004 0.0982,2.3e-4 0.19634,-5.7e-4 0.29456,-0.001 0.0102,-8e-5 0.0204,-4.2e-4 0.0305,-5.1e-4 0.13248,-7.4e-4 0.26501,-0.003 0.3979,-0.006 0.0741,-0.002 0.14764,-0.004 0.2217,-0.006 0.13283,-0.005 0.26561,-0.009 0.39791,-0.016 0.0102,-4.8e-4 0.0204,-9.2e-4 0.0305,-0.001 0.0981,-0.005 0.19555,-0.0102 0.29353,-0.0155 0.13182,-0.008 0.26352,-0.0171 0.3948,-0.0264 0.009,-6.4e-4 0.0189,-0.001 0.0279,-0.002 0.0596,-0.005 0.11879,-0.009 0.17828,-0.0139 0.004,-3.3e-4 0.009,-10e-4 0.0145,-10e-4 0.15307,-0.0123 0.30609,-0.0267 0.45837,-0.0419 0.0787,-0.008 0.15673,-0.0165 0.23513,-0.0248 10e-4,-10e-5 0.002,9e-5 0.003,0 0.14465,-0.0158 0.28913,-0.0332 0.43305,-0.0512 0.0757,-0.009 0.15099,-0.0195 0.22634,-0.0295 2.46144,-0.33154 4.80927,-1.00528 7.00061,-1.96422 -1.23257,-0.21488 -2.43539,-0.5151 -3.6034,-0.89349 -1.99103,0.3238 -4.10087,0.52577 -6.27145,0.58705 -6.876401,0.19413 -13.23064,-1.0495 -17.141074,-3.27887 z" />
    </g>
  </g>
</svg>
